# xmcd
#
# Track frame offsets:
#	150
#	19713
#	39406
#	59622
#	80044
#	94566
#	110157
#	119718
#	136430
#	153837
#	171749
#	189802
#	205872
#	225560
#
# Disc length: 3278 seconds
#
# Revision: 1
# Processed by: cddbd v1.5.2PL0 Copyright (c) Steve Scherf et al.
# Submitted via: audiograbber 1.83.01
#
DISCID=c00ccc0e
DTITLE=Chartbuster - CB-E3-30
DYEAR=1900
DGENRE=
TTITLE0=Buster Poindexter - Hot, Hot, Hot
TTITLE1=Tone Loc - Funky Cold Medina
TTITLE2=M.C. Hammer - U Can't Touch This
TTITLE3=Sir Mix A Lot - Baby Got Back
TTITLE4=Boby Helms - My Special Angel
TTITLE5=Peter, Paul And Mary - Puff The Magic Dragon
TTITLE6=Patsy Cline - Bill Baily, Won't You Please Come Home
TTITLE7=LeAnn Rimes - But I Do Love You
TTITLE8=Faith Hill - There You'll Be
TTITLE9=Steam - Na Na Hey Hey Kiss Him Goodbye
TTITLE10=Dream - He Loves You Not
TTITLE11=Avril Lavigne - Sk8er Boi
TTITLE12=Angle Stone - Wish I Didn't Miss You
TTITLE13=Natalie Imbrugila - Wrong Impression
EXTD=
EXTT0=
EXTT1=
EXTT2=
EXTT3=
EXTT4=
EXTT5=
EXTT6=
EXTT7=
EXTT8=
EXTT9=
EXTT10=
EXTT11=
EXTT12=
EXTT13=
PLAYORDER=
